<svg width="338.76" height="226.68999999999997" xmlns="http://www.w3.org/2000/svg">

 <g transform="scale(1,-1) translate(0,-226.68999999999997)">
  <title>Layer 1</title>
  <path fill-opacity="0.4" id="svg_9" fill="#41b883" d="m161.096,0.001l-30.225,52.351l-30.224,-52.351l-100.652,0l130.877,226.688l130.877,-226.688l-100.653,0z"/>
  <path fill-opacity="0.4" id="svg_10" fill="#34495e" d="m161.096,0.001l-30.225,52.351l-30.224,-52.351l-48.301,0l78.526,136.01l78.526,-136.01l-48.302,0z"/>
  <path id="svg_13" fill="#41b883" d="m237.84019,0.001l-30.225,52.351l-30.224,-52.351l-100.652,0l130.877,226.688l130.877,-226.688l-100.653,0z"/>
  <path id="svg_14" fill="#34495e" d="m237.84019,0.001l-30.225,52.351l-30.224,-52.351l-48.301,0l78.526,136.01l78.526,-136.01l-48.302,0z"/>
 </g>
</svg>